<?xml version="1.0" encoding="UTF-8"?>
<svg width="246px" height="402px" viewBox="0 0 246 402" version="1.1" xmlns="http://www.w3.org/2000/svg" xmlns:xlink="http://www.w3.org/1999/xlink">
    <title>wineglass</title>
    <g id="wineglass" stroke="none" fill="none" fill-rule="evenodd" stroke-width="1">
        <g id="Group">
            <rect id="Rectangle" fill="#000000" fill-rule="nonzero" opacity="0" x="0" y="0" width="246" height="402"></rect>
            <path d="M122.831584,247.98067 C196.698984,247.98067 246,203.951534 246,137.148438 C246,102.397294 231.360847,56.6813734 210.160073,24.1232855 C200.232503,8.60341307 168.094341,0 122.999831,0 C77.5691655,0 45.5992501,8.60341307 35.5034341,24.1232855 C14.3023217,56.6813734 0,102.397294 0,137.148438 C0,203.951534 48.9645222,247.98067 122.831584,247.98067 Z M122.831584,222.507855 C62.7617659,222.507855 25.4076518,189.612512 25.4076518,137.148438 C25.4076518,112.012981 34.1574604,79.4549943 48.6280288,52.1263782 C63.2668438,60.0552808 89.8521888,64.6099372 122.999831,64.6099372 C155.81098,64.6099372 182.396663,60.0552808 197.035478,52.1263782 C211.674293,79.4549943 220.592044,112.012981 220.592044,137.148438 C220.592044,189.612512 182.901403,222.507855 122.831584,222.507855 Z M122.999831,40.823907 C89.1792019,40.823907 58.8917537,36.1005721 58.8917537,32.2206294 C58.8917537,28.6780436 89.6839421,23.9546071 122.999831,23.9546071 C156.147811,23.9546071 187.107908,28.6780436 187.107908,32.2206294 C187.107908,36.1005721 156.484305,40.823907 122.999831,40.823907 Z M122.831584,361.005721 C129.730375,361.005721 135.619686,355.101976 135.619686,348.354838 L135.619686,234.653719 L110.380314,234.653719 L110.380314,348.354838 C110.380314,355.271332 116.10104,361.005721 122.831584,361.005721 Z M122.831584,401.830644 C183.742636,401.661288 220.592044,386.646198 220.592044,360.667009 C220.592044,334.858193 183.742636,319.675779 122.831584,319.675779 C62.088779,319.675779 25.4076518,334.858193 25.4076518,360.667009 C25.4076518,386.646198 61.9205323,401.661288 122.831584,401.830644 Z M122.831584,377.030172 C79.9246194,377.030172 52.4980409,370.113679 52.4980409,360.667009 C52.4980409,351.389695 80.0928661,344.303846 122.831584,344.303846 C165.738549,344.303846 193.501959,351.389695 193.501959,360.667009 C193.501959,370.113679 165.738549,377.030172 122.831584,377.030172 Z" id="Shape" fill-opacity="0.85" fill="#FFFFFF" fill-rule="nonzero"></path>
        </g>
    </g>
</svg>